<mxfile host="Electron" agent="Mozilla/5.0 (Windows NT 10.0; Win64; x64) AppleWebKit/537.36 (KHTML, like Gecko) draw.io/26.0.16 Chrome/132.0.6834.196 Electron/34.2.0 Safari/537.36" version="26.0.16">
  <diagram id="C5RBs43oDa-KdzZeNtuy" name="Page-1">
    <mxGraphModel dx="4014" dy="3027" grid="1" gridSize="10" guides="1" tooltips="1" connect="1" arrows="1" fold="1" page="1" pageScale="1" pageWidth="827" pageHeight="1169" math="0" shadow="0">
      <root>
        <mxCell id="WIyWlLk6GJQsqaUBKTNV-0" />
        <mxCell id="WIyWlLk6GJQsqaUBKTNV-1" parent="WIyWlLk6GJQsqaUBKTNV-0" />
        <mxCell id="83qBVV4snatBWO1n5Fmt-0" value="&lt;p style=&quot;margin:0px;margin-top:4px;text-align:center;&quot;&gt;&lt;i&gt;&amp;lt;&amp;lt;Interface&amp;gt;&amp;gt;&lt;/i&gt;&lt;br&gt;&lt;b&gt;IBancoDAO&lt;/b&gt;&lt;/p&gt;&lt;hr size=&quot;1&quot; style=&quot;border-style:solid;&quot;&gt;&lt;p style=&quot;margin:0px;margin-left:4px;&quot;&gt;&lt;br&gt;&lt;/p&gt;&lt;hr size=&quot;1&quot; style=&quot;border-style:solid;&quot;&gt;&lt;p style=&quot;margin:0px;margin-left:4px;&quot;&gt;selectAll():ArrayList&amp;lt;Banco&amp;gt;&lt;br&gt;&lt;/p&gt;&lt;p style=&quot;margin:0px;margin-left:4px;&quot;&gt;getMaxGrucce(Evento): int&lt;/p&gt;&lt;p style=&quot;margin:0px;margin-left:4px;&quot;&gt;getMaxIdentificativoBanco(): int&lt;/p&gt;&lt;p style=&quot;margin:0px;margin-left:4px;&quot;&gt;&lt;span style=&quot;background-color: transparent; color: light-dark(rgb(57, 60, 86), rgb(182, 184, 207));&quot;&gt;addBanco(Evento, BancoGuardaroba): boolean&lt;/span&gt;&lt;/p&gt;" style="verticalAlign=top;align=left;overflow=fill;html=1;whiteSpace=wrap;labelBackgroundColor=none;fillColor=#e1d5e7;strokeColor=#9673a6;" vertex="1" parent="WIyWlLk6GJQsqaUBKTNV-1">
          <mxGeometry x="760" y="-989" width="330" height="140" as="geometry" />
        </mxCell>
        <mxCell id="83qBVV4snatBWO1n5Fmt-1" value="&lt;p style=&quot;margin:0px;margin-top:4px;text-align:center;&quot;&gt;&lt;i&gt;&amp;lt;&amp;lt;Interface&amp;gt;&amp;gt;&lt;/i&gt;&lt;br&gt;&lt;b&gt;IBigliettoDAO&lt;/b&gt;&lt;/p&gt;&lt;hr size=&quot;1&quot; style=&quot;border-style:solid;&quot;&gt;&lt;p style=&quot;margin:0px;margin-left:4px;&quot;&gt;&lt;br&gt;&lt;/p&gt;&lt;hr size=&quot;1&quot; style=&quot;border-style:solid;&quot;&gt;&lt;p style=&quot;margin:0px;margin-left:4px;&quot;&gt;creaBiglietto(Biglietto):boolean&lt;br&gt;&lt;/p&gt;&lt;p style=&quot;margin:0px;margin-left:4px;&quot;&gt;setStatoBiglietto(Biglietto):&lt;/p&gt;&lt;p style=&quot;margin:0px;margin-left:4px;&quot;&gt;getStatoBiglietto(Biglietto): int&lt;/p&gt;&lt;p style=&quot;margin:0px;margin-left:4px;&quot;&gt;setGruccia(Biglietto): boolean&lt;/p&gt;&lt;p style=&quot;margin:0px;margin-left:4px;&quot;&gt;getGruccia(Evento): int&lt;/p&gt;&lt;p style=&quot;margin:0px;margin-left:4px;&quot;&gt;getNumeroGrucceAssegnate(Evento): int&lt;/p&gt;&lt;p style=&quot;margin:0px;margin-left:4px;&quot;&gt;getNumeroBigliettiByCodiceFiscale(Persona, Evento): int&lt;/p&gt;&lt;p style=&quot;margin:0px;margin-left:4px;&quot;&gt;getBigliettiTotoaliByEvento(Evento): int&lt;/p&gt;&lt;p style=&quot;margin:0px;margin-left:4px;&quot;&gt;getTuttiQRBiglietti(): ArrayList&amp;lt;String&amp;gt;&lt;/p&gt;&lt;p style=&quot;margin:0px;margin-left:4px;&quot;&gt;getInvitati(Evento): ArrayList&amp;lt;Biglietto&amp;gt;&lt;/p&gt;&lt;p style=&quot;margin:0px;margin-left:4px;&quot;&gt;getBigliettoByQR(Biglietto): Biglietto&lt;br&gt;getCreatoreBiglietto(Biglietto): Persona&lt;br&gt;&lt;br&gt;&lt;/p&gt;&lt;p style=&quot;margin:0px;margin-left:4px;&quot;&gt;&lt;br&gt;&lt;/p&gt;&lt;p style=&quot;margin:0px;margin-left:4px;&quot;&gt;&lt;br&gt;&lt;/p&gt;" style="verticalAlign=top;align=left;overflow=fill;html=1;whiteSpace=wrap;labelBackgroundColor=none;fillColor=#e1d5e7;strokeColor=#9673a6;" vertex="1" parent="WIyWlLk6GJQsqaUBKTNV-1">
          <mxGeometry x="610" y="-595" width="340" height="250" as="geometry" />
        </mxCell>
        <mxCell id="83qBVV4snatBWO1n5Fmt-2" value="&lt;p style=&quot;margin:0px;margin-top:4px;text-align:center;&quot;&gt;&lt;i&gt;&amp;lt;&amp;lt;Interface&amp;gt;&amp;gt;&lt;/i&gt;&lt;br&gt;&lt;b&gt;IEventoDAO&lt;/b&gt;&lt;/p&gt;&lt;hr size=&quot;1&quot; style=&quot;border-style:solid;&quot;&gt;&lt;p style=&quot;margin:0px;margin-left:4px;&quot;&gt;&lt;br&gt;&lt;/p&gt;&lt;hr size=&quot;1&quot; style=&quot;border-style:solid;&quot;&gt;&lt;p style=&quot;margin:0px;margin-left:4px;&quot;&gt;selectAll:&amp;nbsp;ArrayList&amp;lt;Evento&amp;gt;&amp;nbsp;&lt;/p&gt;&lt;p style=&quot;margin:0px;margin-left:4px;&quot;&gt;searchByData(Evento):&lt;br&gt;&lt;/p&gt;&lt;p style=&quot;margin:0px;margin-left:4px;&quot;&gt;addEvento&lt;span style=&quot;background-color: transparent;&quot;&gt;&lt;font color=&quot;rgba(0, 0, 0, 0)&quot;&gt;(&lt;/font&gt;Evento&lt;font color=&quot;rgba(0, 0, 0, 0)&quot;&gt;):&lt;/font&gt;&lt;/span&gt;&lt;/p&gt;&lt;p style=&quot;margin:0px;margin-left:4px;&quot;&gt;setVenditeAperte&lt;span style=&quot;background-color: transparent;&quot;&gt;&lt;font color=&quot;rgba(0, 0, 0, 0)&quot;&gt;(&lt;/font&gt;Evento&lt;font color=&quot;rgba(0, 0, 0, 0)&quot;&gt;):&lt;/font&gt;&lt;/span&gt;&lt;/p&gt;&lt;p style=&quot;margin:0px;margin-left:4px;&quot;&gt;getVenditeAperte&lt;span style=&quot;background-color: transparent;&quot;&gt;&lt;font color=&quot;rgba(0, 0, 0, 0)&quot;&gt;(&lt;/font&gt;Evento&lt;font color=&quot;rgba(0, 0, 0, 0)&quot;&gt;): boolean&lt;/font&gt;&lt;/span&gt;&lt;/p&gt;&lt;p style=&quot;margin:0px;margin-left:4px;&quot;&gt;getAllDate&lt;span style=&quot;background-color: transparent; color: light-dark(rgb(57, 60, 86), rgb(182, 184, 207));&quot;&gt;(String):&amp;nbsp;&lt;/span&gt;&lt;span style=&quot;background-color: transparent;&quot;&gt;ArrayList&amp;lt;String&amp;gt;&lt;/span&gt;&lt;/p&gt;&lt;p style=&quot;margin:0px;margin-left:4px;&quot;&gt;getCapacitaByEvento&lt;span style=&quot;background-color: transparent; color: light-dark(rgb(57, 60, 86), rgb(182, 184, 207));&quot;&gt;(Evento):&lt;/span&gt;&lt;/p&gt;&lt;p style=&quot;margin:0px;margin-left:4px;&quot;&gt;selectByLuogo(String):&lt;/p&gt;&lt;p style=&quot;margin:0px;margin-left:4px;&quot;&gt;&lt;br&gt;&lt;/p&gt;&lt;p style=&quot;margin:0px;margin-left:4px;&quot;&gt;&lt;br&gt;&lt;/p&gt;&lt;p style=&quot;margin:0px;margin-left:4px;&quot;&gt;&lt;br&gt;&lt;/p&gt;" style="verticalAlign=top;align=left;overflow=fill;html=1;whiteSpace=wrap;labelBackgroundColor=none;fillColor=#e1d5e7;strokeColor=#9673a6;" vertex="1" parent="WIyWlLk6GJQsqaUBKTNV-1">
          <mxGeometry x="-190" y="-1014" width="340" height="200" as="geometry" />
        </mxCell>
        <mxCell id="83qBVV4snatBWO1n5Fmt-3" value="&lt;p style=&quot;margin:0px;margin-top:4px;text-align:center;&quot;&gt;&lt;i&gt;&amp;lt;&amp;lt;Interface&amp;gt;&amp;gt;&lt;/i&gt;&lt;br&gt;&lt;b&gt;IPersonaDAO&lt;/b&gt;&lt;/p&gt;&lt;hr size=&quot;1&quot; style=&quot;border-style:solid;&quot;&gt;&lt;p style=&quot;margin:0px;margin-left:4px;&quot;&gt;&lt;br&gt;&lt;/p&gt;&lt;hr size=&quot;1&quot; style=&quot;border-style:solid;&quot;&gt;&lt;p style=&quot;margin:0px;margin-left:4px;&quot;&gt;selectAll():&amp;nbsp;&lt;span style=&quot;background-color: transparent; color: light-dark(rgb(57, 60, 86), rgb(182, 184, 207));&quot;&gt;ArrayList&amp;lt;Persona&amp;gt;&lt;/span&gt;&lt;/p&gt;&lt;p style=&quot;margin:0px;margin-left:4px;&quot;&gt;searchByCF(Persona): Persona&lt;/p&gt;&lt;p style=&quot;margin:0px;margin-left:4px;&quot;&gt;addOrganizzatore(Organizzatore): boolean&lt;/p&gt;&lt;p style=&quot;margin:0px;margin-left:4px;&quot;&gt;addStaffer(Staffer): boolean&lt;/p&gt;&lt;p style=&quot;margin:0px;margin-left:4px;&quot;&gt;login&lt;span style=&quot;background-color: transparent; color: light-dark(rgb(57, 60, 86), rgb(182, 184, 207));&quot;&gt;(Persona): Persona&lt;/span&gt;&lt;/p&gt;&lt;p style=&quot;margin:0px;margin-left:4px;&quot;&gt;getCodiceFiscaleByEmail(Persona): Persona&lt;/p&gt;&lt;p style=&quot;margin:0px;margin-left:4px;&quot;&gt;selectCFNomeCognome&lt;span style=&quot;background-color: transparent; color: light-dark(rgb(57, 60, 86), rgb(182, 184, 207));&quot;&gt;(): ArrayList&amp;lt;Persona&amp;gt;&lt;/span&gt;&lt;/p&gt;&lt;p style=&quot;margin:0px;margin-left:4px;&quot;&gt;selectStaffCFNomeCognome(): ArrayList&amp;lt;Persona&amp;gt;&lt;/p&gt;&lt;p style=&quot;margin:0px;margin-left:4px;&quot;&gt;selectOrganizzatoreCFNomeCognome(): ArrayList&amp;lt;Persona&amp;gt;&lt;/p&gt;&lt;p style=&quot;margin:0px;margin-left:4px;&quot;&gt;&lt;br&gt;&lt;/p&gt;" style="verticalAlign=top;align=left;overflow=fill;html=1;whiteSpace=wrap;labelBackgroundColor=none;fillColor=#e1d5e7;strokeColor=#9673a6;" vertex="1" parent="WIyWlLk6GJQsqaUBKTNV-1">
          <mxGeometry x="-60" y="-595" width="340" height="210" as="geometry" />
        </mxCell>
        <mxCell id="83qBVV4snatBWO1n5Fmt-4" value="PersistenceFacade" style="swimlane;fontStyle=1;align=center;verticalAlign=top;childLayout=stackLayout;horizontal=1;startSize=26;horizontalStack=0;resizeParent=1;resizeParentMax=0;resizeLast=0;collapsible=1;marginBottom=0;whiteSpace=wrap;html=1;labelBackgroundColor=none;fillColor=#e1d5e7;strokeColor=#9673a6;" vertex="1" parent="WIyWlLk6GJQsqaUBKTNV-1">
          <mxGeometry x="250" y="-1124" width="410" height="420" as="geometry" />
        </mxCell>
        <mxCell id="83qBVV4snatBWO1n5Fmt-5" value="&lt;div&gt;&lt;div&gt;- istance: PersistenceFacade&lt;/div&gt;&lt;/div&gt;&lt;div&gt;&lt;div&gt;iBigliettoDAO: IBigliettoDAO&lt;/div&gt;&lt;div&gt;iPersonaDAO: IPersonaDAO&lt;/div&gt;&lt;div&gt;iEventoDAO: IEventoDAO&lt;/div&gt;&lt;div&gt;iBancoDAO: IBancoDAO&lt;/div&gt;&lt;/div&gt;" style="text;strokeColor=none;fillColor=none;align=left;verticalAlign=top;spacingLeft=4;spacingRight=4;overflow=hidden;rotatable=0;points=[[0,0.5],[1,0.5]];portConstraint=eastwest;whiteSpace=wrap;html=1;labelBackgroundColor=none;fontColor=#393C56;" vertex="1" parent="83qBVV4snatBWO1n5Fmt-4">
          <mxGeometry y="26" width="410" height="84" as="geometry" />
        </mxCell>
        <mxCell id="83qBVV4snatBWO1n5Fmt-6" value="" style="line;strokeWidth=1;fillColor=#e1d5e7;align=left;verticalAlign=middle;spacingTop=-1;spacingLeft=3;spacingRight=3;rotatable=0;labelPosition=right;points=[];portConstraint=eastwest;strokeColor=#9673a6;labelBackgroundColor=none;" vertex="1" parent="83qBVV4snatBWO1n5Fmt-4">
          <mxGeometry y="110" width="410" height="8" as="geometry" />
        </mxCell>
        <mxCell id="83qBVV4snatBWO1n5Fmt-7" value="+ getInstance(): PersistanceFacade&lt;div&gt;+ setStatoBiglietto(String, boolean): boolean&lt;/div&gt;&lt;div&gt;+ getStatoBiglietto(String): int&lt;/div&gt;&lt;div&gt;+ login(String, String): int&lt;/div&gt;&lt;div&gt;+ registrazioneOrganizzatore(String, String, String, String, String): boolean&lt;/div&gt;&lt;div&gt;+ getEventi(): ArrayList&amp;lt;String&amp;gt;&lt;/div&gt;&lt;div&gt;+ setStatoEvento(Date, boolean):&lt;/div&gt;&lt;div&gt;+ searchEventoByData(Date): int&lt;/div&gt;&lt;div&gt;+ setGruccia(String, int): boolean&lt;/div&gt;&lt;div&gt;+ getGruccia(String): int&lt;/div&gt;&lt;div&gt;+ getMaxGrucce(Evento): int&lt;br&gt;&lt;/div&gt;&lt;div&gt;+ getNumeroGrucceAssegnate(Evento): int&lt;/div&gt;&lt;div&gt;+ getCodiceFiscaleByEmail(String): Persona&lt;/div&gt;&lt;div&gt;+ aggiungiInvitato(Persona, Evento, String, String, String): int&lt;/div&gt;&lt;div&gt;+ addStaffer(String, String, String, String, String): boolean&lt;/div&gt;&lt;div&gt;+&amp;nbsp; addEvento(String, String, String): boolean&lt;/div&gt;&lt;div&gt;+ getDataByBiglietto(String): Date&lt;/div&gt;&lt;div&gt;+ addBanco(String, String): boolean&lt;/div&gt;&lt;div&gt;+ getEventoDAO(): EventoDAO&lt;/div&gt;&lt;div&gt;+ getBigliettoDAO(): BigliettoDAO&lt;/div&gt;" style="text;strokeColor=none;fillColor=none;align=left;verticalAlign=top;spacingLeft=4;spacingRight=4;overflow=hidden;rotatable=0;points=[[0,0.5],[1,0.5]];portConstraint=eastwest;whiteSpace=wrap;html=1;labelBackgroundColor=none;fontColor=#393C56;" vertex="1" parent="83qBVV4snatBWO1n5Fmt-4">
          <mxGeometry y="118" width="410" height="302" as="geometry" />
        </mxCell>
        <mxCell id="83qBVV4snatBWO1n5Fmt-8" value="BigliettoDAO" style="swimlane;fontStyle=1;align=center;verticalAlign=top;childLayout=stackLayout;horizontal=1;startSize=26;horizontalStack=0;resizeParent=1;resizeParentMax=0;resizeLast=0;collapsible=1;marginBottom=0;whiteSpace=wrap;html=1;labelBackgroundColor=none;fillColor=#e1d5e7;strokeColor=#9673a6;" vertex="1" parent="WIyWlLk6GJQsqaUBKTNV-1">
          <mxGeometry x="1100" y="-305" width="360" height="260" as="geometry" />
        </mxCell>
        <mxCell id="83qBVV4snatBWO1n5Fmt-9" value="&lt;div&gt;- conn: Connection&lt;/div&gt;" style="text;strokeColor=none;fillColor=none;align=left;verticalAlign=top;spacingLeft=4;spacingRight=4;overflow=hidden;rotatable=0;points=[[0,0.5],[1,0.5]];portConstraint=eastwest;whiteSpace=wrap;html=1;labelBackgroundColor=none;fontColor=#393C56;" vertex="1" parent="83qBVV4snatBWO1n5Fmt-8">
          <mxGeometry y="26" width="360" height="24" as="geometry" />
        </mxCell>
        <mxCell id="83qBVV4snatBWO1n5Fmt-10" value="" style="line;strokeWidth=1;fillColor=#e1d5e7;align=left;verticalAlign=middle;spacingTop=-1;spacingLeft=3;spacingRight=3;rotatable=0;labelPosition=right;points=[];portConstraint=eastwest;strokeColor=#9673a6;labelBackgroundColor=none;" vertex="1" parent="83qBVV4snatBWO1n5Fmt-8">
          <mxGeometry y="50" width="360" height="8" as="geometry" />
        </mxCell>
        <mxCell id="83qBVV4snatBWO1n5Fmt-11" value="+ getCreatoreBiglietto(Biglietto): Persona&lt;div&gt;+ creaBiglietto(Biglietto): boolean&lt;/div&gt;&lt;div&gt;+ getBigliettiTotaliByEvento(Evento): int&lt;/div&gt;&lt;div&gt;+ getBigliettoByQR(Biglietto): Biglietto&lt;/div&gt;&lt;div&gt;+ getTuttiQRBiglietti(): ArrayList&amp;lt;String&amp;gt;&lt;/div&gt;&lt;div&gt;+&amp;nbsp;setStatoBiglietto&lt;span style=&quot;background-color: transparent; color: light-dark(rgb(57, 60, 86), rgb(182, 184, 207));&quot;&gt;(&lt;/span&gt;&lt;span style=&quot;background-color: transparent;&quot;&gt;Biglietto&lt;/span&gt;&lt;span style=&quot;background-color: transparent; color: light-dark(rgb(57, 60, 86), rgb(182, 184, 207));&quot;&gt;):&lt;/span&gt;&lt;/div&gt;&lt;div&gt;+&amp;nbsp;getStatoBiglietto&lt;span style=&quot;background-color: transparent; color: light-dark(rgb(57, 60, 86), rgb(182, 184, 207));&quot;&gt;(&lt;/span&gt;&lt;span style=&quot;background-color: transparent;&quot;&gt;Biglietto&lt;/span&gt;&lt;span style=&quot;background-color: transparent; color: light-dark(rgb(57, 60, 86), rgb(182, 184, 207));&quot;&gt;): boolean&lt;/span&gt;&lt;/div&gt;&lt;div&gt;+&amp;nbsp;setGruccia&lt;span style=&quot;background-color: transparent; color: light-dark(rgb(57, 60, 86), rgb(182, 184, 207));&quot;&gt;(&lt;/span&gt;&lt;span style=&quot;background-color: transparent;&quot;&gt;Biglietto&lt;/span&gt;&lt;span style=&quot;background-color: transparent; color: light-dark(rgb(57, 60, 86), rgb(182, 184, 207));&quot;&gt;):&amp;nbsp;&lt;/span&gt;&lt;span style=&quot;background-color: transparent;&quot;&gt;int&lt;/span&gt;&lt;/div&gt;&lt;div&gt;+&amp;nbsp;getGruccia&lt;span style=&quot;background-color: transparent; color: light-dark(rgb(57, 60, 86), rgb(182, 184, 207));&quot;&gt;(&lt;/span&gt;&lt;span style=&quot;background-color: transparent;&quot;&gt;Biglietto&lt;/span&gt;&lt;span style=&quot;background-color: transparent; color: light-dark(rgb(57, 60, 86), rgb(182, 184, 207));&quot;&gt;):&amp;nbsp;&lt;/span&gt;&lt;span style=&quot;background-color: transparent;&quot;&gt;int&lt;/span&gt;&lt;/div&gt;&lt;div&gt;+&amp;nbsp;getNumeroGrucceAssegnate&lt;span style=&quot;background-color: transparent; color: light-dark(rgb(57, 60, 86), rgb(182, 184, 207));&quot;&gt;(Evento):&lt;/span&gt;&lt;/div&gt;&lt;div&gt;+&amp;nbsp;getNumeroBigliettiByCodiceFiscale&lt;span style=&quot;background-color: transparent; color: light-dark(rgb(57, 60, 86), rgb(182, 184, 207));&quot;&gt;(Persona, Evento): int&lt;/span&gt;&lt;/div&gt;&lt;div&gt;+&amp;nbsp;getInvitati(Evento): ArrayList&amp;lt;Biglietto&amp;gt;&lt;/div&gt;&lt;div&gt;+&amp;nbsp;addBiglietto(Biglietto): boolean&lt;/div&gt;&lt;div&gt;&lt;br&gt;&lt;/div&gt;" style="text;strokeColor=none;fillColor=none;align=left;verticalAlign=top;spacingLeft=4;spacingRight=4;overflow=hidden;rotatable=0;points=[[0,0.5],[1,0.5]];portConstraint=eastwest;whiteSpace=wrap;html=1;labelBackgroundColor=none;fontColor=#393C56;" vertex="1" parent="83qBVV4snatBWO1n5Fmt-8">
          <mxGeometry y="58" width="360" height="202" as="geometry" />
        </mxCell>
        <mxCell id="83qBVV4snatBWO1n5Fmt-12" value="BancoDAO" style="swimlane;fontStyle=1;align=center;verticalAlign=top;childLayout=stackLayout;horizontal=1;startSize=26;horizontalStack=0;resizeParent=1;resizeParentMax=0;resizeLast=0;collapsible=1;marginBottom=0;whiteSpace=wrap;html=1;labelBackgroundColor=none;fillColor=#e1d5e7;strokeColor=#9673a6;" vertex="1" parent="WIyWlLk6GJQsqaUBKTNV-1">
          <mxGeometry x="1210" y="-984" width="360" height="130" as="geometry" />
        </mxCell>
        <mxCell id="83qBVV4snatBWO1n5Fmt-13" value="&lt;div&gt;- conn: Connection&lt;/div&gt;" style="text;strokeColor=none;fillColor=none;align=left;verticalAlign=top;spacingLeft=4;spacingRight=4;overflow=hidden;rotatable=0;points=[[0,0.5],[1,0.5]];portConstraint=eastwest;whiteSpace=wrap;html=1;labelBackgroundColor=none;fontColor=#393C56;" vertex="1" parent="83qBVV4snatBWO1n5Fmt-12">
          <mxGeometry y="26" width="360" height="24" as="geometry" />
        </mxCell>
        <mxCell id="83qBVV4snatBWO1n5Fmt-14" value="" style="line;strokeWidth=1;fillColor=#e1d5e7;align=left;verticalAlign=middle;spacingTop=-1;spacingLeft=3;spacingRight=3;rotatable=0;labelPosition=right;points=[];portConstraint=eastwest;strokeColor=#9673a6;labelBackgroundColor=none;" vertex="1" parent="83qBVV4snatBWO1n5Fmt-12">
          <mxGeometry y="50" width="360" height="8" as="geometry" />
        </mxCell>
        <mxCell id="83qBVV4snatBWO1n5Fmt-15" value="&lt;div&gt;+&amp;nbsp;selectAll(): ArrayList&amp;lt;Banco&amp;gt;&lt;/div&gt;&lt;div&gt;&lt;span style=&quot;background-color: transparent; color: light-dark(rgb(57, 60, 86), rgb(182, 184, 207));&quot;&gt;+ getMaxGrucce(Evento): int&lt;/span&gt;&lt;/div&gt;&lt;div&gt;&lt;p style=&quot;margin: 0px 0px 0px 4px;&quot;&gt;+ getMaxIdentificativoBanco(): int&lt;/p&gt;&lt;p style=&quot;margin: 0px 0px 0px 4px;&quot;&gt;&lt;span style=&quot;background-color: transparent; color: light-dark(rgb(57, 60, 86), rgb(182, 184, 207));&quot;&gt;+ addBanco(Evento, BancoGuardaroba): boolean&lt;/span&gt;&lt;/p&gt;&lt;/div&gt;" style="text;strokeColor=none;fillColor=none;align=left;verticalAlign=top;spacingLeft=4;spacingRight=4;overflow=hidden;rotatable=0;points=[[0,0.5],[1,0.5]];portConstraint=eastwest;whiteSpace=wrap;html=1;labelBackgroundColor=none;fontColor=#393C56;" vertex="1" parent="83qBVV4snatBWO1n5Fmt-12">
          <mxGeometry y="58" width="360" height="72" as="geometry" />
        </mxCell>
        <mxCell id="83qBVV4snatBWO1n5Fmt-16" value="EventoDAO" style="swimlane;fontStyle=1;align=center;verticalAlign=top;childLayout=stackLayout;horizontal=1;startSize=26;horizontalStack=0;resizeParent=1;resizeParentMax=0;resizeLast=0;collapsible=1;marginBottom=0;whiteSpace=wrap;html=1;labelBackgroundColor=none;fillColor=#e1d5e7;strokeColor=#9673a6;" vertex="1" parent="WIyWlLk6GJQsqaUBKTNV-1">
          <mxGeometry x="-660" y="-1019" width="360" height="210" as="geometry" />
        </mxCell>
        <mxCell id="83qBVV4snatBWO1n5Fmt-17" value="&lt;div&gt;- conn: Connection&lt;/div&gt;" style="text;strokeColor=none;fillColor=none;align=left;verticalAlign=top;spacingLeft=4;spacingRight=4;overflow=hidden;rotatable=0;points=[[0,0.5],[1,0.5]];portConstraint=eastwest;whiteSpace=wrap;html=1;labelBackgroundColor=none;fontColor=#393C56;" vertex="1" parent="83qBVV4snatBWO1n5Fmt-16">
          <mxGeometry y="26" width="360" height="24" as="geometry" />
        </mxCell>
        <mxCell id="83qBVV4snatBWO1n5Fmt-18" value="" style="line;strokeWidth=1;fillColor=#e1d5e7;align=left;verticalAlign=middle;spacingTop=-1;spacingLeft=3;spacingRight=3;rotatable=0;labelPosition=right;points=[];portConstraint=eastwest;strokeColor=#9673a6;labelBackgroundColor=none;" vertex="1" parent="83qBVV4snatBWO1n5Fmt-16">
          <mxGeometry y="50" width="360" height="8" as="geometry" />
        </mxCell>
        <mxCell id="83qBVV4snatBWO1n5Fmt-19" value="&lt;div&gt;+&amp;nbsp;&lt;span style=&quot;background-color: transparent; color: light-dark(rgb(57, 60, 86), rgb(182, 184, 207));&quot;&gt;selectAll:&amp;nbsp;ArrayList&amp;lt;Evento&amp;gt;&amp;nbsp;&lt;/span&gt;&lt;/div&gt;&lt;div&gt;&lt;span style=&quot;background-color: transparent; color: light-dark(rgb(57, 60, 86), rgb(182, 184, 207));&quot;&gt;+ getAllDate():&amp;nbsp;&lt;/span&gt;&lt;span style=&quot;background-color: transparent;&quot;&gt;ArrayList&amp;lt;String&amp;gt;&lt;/span&gt;&lt;/div&gt;&lt;div&gt;+ selectByLuogo(String):&amp;nbsp;ArrayList&amp;lt;Evento&amp;gt;&lt;/div&gt;&lt;div&gt;+ searchByData(Evento):&lt;/div&gt;&lt;div&gt;+&amp;nbsp;getCapacitaByEvento&lt;span style=&quot;background-color: transparent; color: light-dark(rgb(57, 60, 86), rgb(182, 184, 207));&quot;&gt;(&lt;/span&gt;&lt;span style=&quot;background-color: transparent;&quot;&gt;Evento&lt;/span&gt;&lt;span style=&quot;background-color: transparent; color: light-dark(rgb(57, 60, 86), rgb(182, 184, 207));&quot;&gt;):&lt;/span&gt;&lt;/div&gt;&lt;div&gt;+&amp;nbsp;addEvento&lt;span style=&quot;background-color: transparent; color: light-dark(rgb(57, 60, 86), rgb(182, 184, 207));&quot;&gt;(&lt;/span&gt;&lt;span style=&quot;background-color: transparent;&quot;&gt;Evento&lt;/span&gt;&lt;span style=&quot;background-color: transparent; color: light-dark(rgb(57, 60, 86), rgb(182, 184, 207));&quot;&gt;):&lt;/span&gt;&lt;/div&gt;&lt;div&gt;+&amp;nbsp;setVenditeAperte&lt;span style=&quot;background-color: transparent; color: light-dark(rgb(57, 60, 86), rgb(182, 184, 207));&quot;&gt;(&lt;/span&gt;&lt;span style=&quot;background-color: transparent;&quot;&gt;Evento&lt;/span&gt;&lt;span style=&quot;background-color: transparent; color: light-dark(rgb(57, 60, 86), rgb(182, 184, 207));&quot;&gt;):&lt;/span&gt;&lt;/div&gt;&lt;div&gt;+&amp;nbsp;getVenditeAperte&lt;span style=&quot;background-color: transparent; color: light-dark(rgb(57, 60, 86), rgb(182, 184, 207));&quot;&gt;(&lt;/span&gt;&lt;span style=&quot;background-color: transparent;&quot;&gt;Evento&lt;/span&gt;&lt;span style=&quot;background-color: transparent; color: light-dark(rgb(57, 60, 86), rgb(182, 184, 207));&quot;&gt;):&lt;/span&gt;&lt;/div&gt;&lt;div&gt;+&amp;nbsp;addEventoAlDB&lt;span style=&quot;background-color: transparent; color: light-dark(rgb(57, 60, 86), rgb(182, 184, 207));&quot;&gt;(&lt;/span&gt;&lt;span style=&quot;background-color: transparent;&quot;&gt;Evento&lt;/span&gt;&lt;span style=&quot;background-color: transparent; color: light-dark(rgb(57, 60, 86), rgb(182, 184, 207));&quot;&gt;):&lt;/span&gt;&lt;/div&gt;&lt;div&gt;+&amp;nbsp;modificaStatoVendita&lt;span style=&quot;background-color: transparent; color: light-dark(rgb(57, 60, 86), rgb(182, 184, 207));&quot;&gt;(&lt;/span&gt;&lt;span style=&quot;background-color: transparent;&quot;&gt;Evento&lt;/span&gt;&lt;span style=&quot;background-color: transparent; color: light-dark(rgb(57, 60, 86), rgb(182, 184, 207));&quot;&gt;):&lt;/span&gt;&lt;/div&gt;&lt;div&gt;&lt;br&gt;&lt;/div&gt;" style="text;strokeColor=none;fillColor=none;align=left;verticalAlign=top;spacingLeft=4;spacingRight=4;overflow=hidden;rotatable=0;points=[[0,0.5],[1,0.5]];portConstraint=eastwest;whiteSpace=wrap;html=1;labelBackgroundColor=none;fontColor=#393C56;" vertex="1" parent="83qBVV4snatBWO1n5Fmt-16">
          <mxGeometry y="58" width="360" height="152" as="geometry" />
        </mxCell>
        <mxCell id="83qBVV4snatBWO1n5Fmt-20" value="PersonaDAO" style="swimlane;fontStyle=1;align=center;verticalAlign=top;childLayout=stackLayout;horizontal=1;startSize=26;horizontalStack=0;resizeParent=1;resizeParentMax=0;resizeLast=0;collapsible=1;marginBottom=0;whiteSpace=wrap;html=1;labelBackgroundColor=none;fillColor=#e1d5e7;strokeColor=#9673a6;" vertex="1" parent="WIyWlLk6GJQsqaUBKTNV-1">
          <mxGeometry x="-540" y="-305" width="360" height="200" as="geometry" />
        </mxCell>
        <mxCell id="83qBVV4snatBWO1n5Fmt-21" value="&lt;div&gt;- conn: Connection&lt;/div&gt;" style="text;strokeColor=none;fillColor=none;align=left;verticalAlign=top;spacingLeft=4;spacingRight=4;overflow=hidden;rotatable=0;points=[[0,0.5],[1,0.5]];portConstraint=eastwest;whiteSpace=wrap;html=1;labelBackgroundColor=none;fontColor=#393C56;" vertex="1" parent="83qBVV4snatBWO1n5Fmt-20">
          <mxGeometry y="26" width="360" height="24" as="geometry" />
        </mxCell>
        <mxCell id="83qBVV4snatBWO1n5Fmt-22" value="" style="line;strokeWidth=1;fillColor=#e1d5e7;align=left;verticalAlign=middle;spacingTop=-1;spacingLeft=3;spacingRight=3;rotatable=0;labelPosition=right;points=[];portConstraint=eastwest;strokeColor=#9673a6;labelBackgroundColor=none;" vertex="1" parent="83qBVV4snatBWO1n5Fmt-20">
          <mxGeometry y="50" width="360" height="8" as="geometry" />
        </mxCell>
        <mxCell id="83qBVV4snatBWO1n5Fmt-23" value="&lt;div&gt;&lt;span style=&quot;background-color: transparent; color: light-dark(rgb(57, 60, 86), rgb(182, 184, 207));&quot;&gt;+ selectAll():&amp;nbsp;&lt;/span&gt;&lt;span style=&quot;background-color: transparent;&quot;&gt;ArrayList&amp;lt;Persona&amp;gt;&amp;nbsp;&lt;/span&gt;&lt;/div&gt;&lt;div&gt;+ selectCFNomeCognome():&amp;nbsp;ArrayList&amp;lt;Persona&amp;gt;&amp;nbsp;&lt;/div&gt;&lt;div&gt;+ selectStaffCFNomeCognome():&amp;nbsp;ArrayList&amp;lt;Persona&amp;gt;&amp;nbsp;&lt;/div&gt;&lt;div&gt;+ selectOrganizzatoreCFNomeCognome():&amp;nbsp;ArrayList&amp;lt;Persona&amp;gt;&amp;nbsp;&lt;/div&gt;&lt;div&gt;+ addOrganizzatore(Organizzatore):&amp;nbsp;boolean&lt;/div&gt;&lt;div&gt;+ addStaffer(Staffer):&amp;nbsp;boolean&lt;/div&gt;&lt;div&gt;+ searchByCF(Persona):&amp;nbsp;Persona&lt;/div&gt;&lt;div&gt;+ login(Persona):&amp;nbsp;Persona&lt;/div&gt;&lt;div&gt;+ getCodiceFiscaleByEmail(Persona):&amp;nbsp;Persona&lt;/div&gt;" style="text;strokeColor=none;fillColor=none;align=left;verticalAlign=top;spacingLeft=4;spacingRight=4;overflow=hidden;rotatable=0;points=[[0,0.5],[1,0.5]];portConstraint=eastwest;whiteSpace=wrap;html=1;labelBackgroundColor=none;fontColor=#393C56;" vertex="1" parent="83qBVV4snatBWO1n5Fmt-20">
          <mxGeometry y="58" width="360" height="142" as="geometry" />
        </mxCell>
        <mxCell id="83qBVV4snatBWO1n5Fmt-24" value="" style="html=1;verticalAlign=bottom;labelBackgroundColor=none;endArrow=open;endFill=0;dashed=1;rounded=0;strokeColor=#3700CC;fontColor=default;fillColor=#6a00ff;shadow=1;strokeWidth=2;" edge="1" parent="WIyWlLk6GJQsqaUBKTNV-1" source="83qBVV4snatBWO1n5Fmt-0" target="83qBVV4snatBWO1n5Fmt-12">
          <mxGeometry width="160" relative="1" as="geometry">
            <mxPoint x="1230" y="-67.38327526132343" as="sourcePoint" />
            <mxPoint x="-40" y="-155" as="targetPoint" />
          </mxGeometry>
        </mxCell>
        <mxCell id="83qBVV4snatBWO1n5Fmt-25" value="" style="html=1;verticalAlign=bottom;labelBackgroundColor=none;endArrow=open;endFill=0;dashed=1;rounded=0;strokeColor=#3700CC;fontColor=default;fillColor=#6a00ff;shadow=1;strokeWidth=2;" edge="1" parent="WIyWlLk6GJQsqaUBKTNV-1" source="83qBVV4snatBWO1n5Fmt-1" target="83qBVV4snatBWO1n5Fmt-8">
          <mxGeometry width="160" relative="1" as="geometry">
            <mxPoint x="1250" y="-855" as="sourcePoint" />
            <mxPoint x="1370" y="-855" as="targetPoint" />
          </mxGeometry>
        </mxCell>
        <mxCell id="83qBVV4snatBWO1n5Fmt-26" value="" style="html=1;verticalAlign=bottom;labelBackgroundColor=none;endArrow=open;endFill=0;dashed=1;rounded=0;strokeColor=#3700CC;fontColor=default;fillColor=#6a00ff;shadow=1;strokeWidth=2;" edge="1" parent="WIyWlLk6GJQsqaUBKTNV-1" source="83qBVV4snatBWO1n5Fmt-2" target="83qBVV4snatBWO1n5Fmt-16">
          <mxGeometry width="160" relative="1" as="geometry">
            <mxPoint x="1260" y="-845" as="sourcePoint" />
            <mxPoint x="1380" y="-845" as="targetPoint" />
          </mxGeometry>
        </mxCell>
        <mxCell id="83qBVV4snatBWO1n5Fmt-27" value="" style="html=1;verticalAlign=bottom;labelBackgroundColor=none;endArrow=open;endFill=0;dashed=1;rounded=0;strokeColor=#3700CC;fontColor=default;fillColor=#6a00ff;shadow=1;strokeWidth=2;" edge="1" parent="WIyWlLk6GJQsqaUBKTNV-1" source="83qBVV4snatBWO1n5Fmt-3" target="83qBVV4snatBWO1n5Fmt-20">
          <mxGeometry width="160" relative="1" as="geometry">
            <mxPoint x="430" y="-1055" as="sourcePoint" />
            <mxPoint x="550" y="-1055" as="targetPoint" />
          </mxGeometry>
        </mxCell>
        <mxCell id="83qBVV4snatBWO1n5Fmt-28" value="Dependecy" style="endArrow=open;endSize=12;dashed=1;html=1;rounded=0;strokeColor=#3700CC;fontSize=12;fontColor=#393C56;curved=1;fillColor=#6a00ff;entryX=0;entryY=0.5;entryDx=0;entryDy=0;shadow=1;strokeWidth=2;" edge="1" parent="WIyWlLk6GJQsqaUBKTNV-1" source="83qBVV4snatBWO1n5Fmt-4" target="83qBVV4snatBWO1n5Fmt-0">
          <mxGeometry width="160" relative="1" as="geometry">
            <mxPoint x="410" y="-837" as="sourcePoint" />
            <mxPoint x="410" y="-945" as="targetPoint" />
          </mxGeometry>
        </mxCell>
        <mxCell id="83qBVV4snatBWO1n5Fmt-29" value="Dependecy" style="endArrow=open;endSize=12;dashed=1;html=1;rounded=0;strokeColor=#3700CC;fontSize=12;fontColor=#393C56;curved=1;fillColor=#6a00ff;shadow=1;strokeWidth=2;" edge="1" parent="WIyWlLk6GJQsqaUBKTNV-1" source="83qBVV4snatBWO1n5Fmt-4" target="83qBVV4snatBWO1n5Fmt-1">
          <mxGeometry width="160" relative="1" as="geometry">
            <mxPoint x="650" y="-628" as="sourcePoint" />
            <mxPoint x="920" y="-855" as="targetPoint" />
          </mxGeometry>
        </mxCell>
        <mxCell id="83qBVV4snatBWO1n5Fmt-30" value="Dependecy" style="endArrow=open;endSize=12;dashed=1;html=1;rounded=0;strokeColor=#3700CC;fontSize=12;fontColor=#393C56;curved=1;fillColor=#6a00ff;shadow=1;strokeWidth=2;" edge="1" parent="WIyWlLk6GJQsqaUBKTNV-1" source="83qBVV4snatBWO1n5Fmt-4" target="83qBVV4snatBWO1n5Fmt-2">
          <mxGeometry width="160" relative="1" as="geometry">
            <mxPoint x="650" y="-507" as="sourcePoint" />
            <mxPoint x="920" y="-577" as="targetPoint" />
          </mxGeometry>
        </mxCell>
        <mxCell id="83qBVV4snatBWO1n5Fmt-31" value="Dependecy" style="endArrow=open;endSize=12;dashed=1;html=1;rounded=0;strokeColor=#3700CC;fontSize=12;fontColor=#393C56;curved=1;fillColor=#6a00ff;shadow=1;strokeWidth=2;" edge="1" parent="WIyWlLk6GJQsqaUBKTNV-1" source="83qBVV4snatBWO1n5Fmt-4" target="83qBVV4snatBWO1n5Fmt-3">
          <mxGeometry width="160" relative="1" as="geometry">
            <mxPoint x="650" y="-420" as="sourcePoint" />
            <mxPoint x="920" y="-374" as="targetPoint" />
          </mxGeometry>
        </mxCell>
      </root>
    </mxGraphModel>
  </diagram>
</mxfile>
